inDegrees=no
num_controls=7
num_derivatives=13
num_iterations=109
num_multipliers=7
num_parameters=0
num_slacks=7
num_states=26
objective=5.996765
objective_accelerations=0.757212
objective_balance=0.025178
objective_effort=0.516633
objective_height=4.580889
objective_ligament=0.116854
solver_duration=914.090792
status=Solve_Succeeded
success=true
DataType=double
version=3
OpenSimVersion=4.4-2022-07-23-0e9fedc
endheader
time	/jointset/ground_pelvis/pelvis_tilt/value	/jointset/ground_pelvis/pelvis_tx/value	/jointset/ground_pelvis/pelvis_ty/value	/jointset/hip_r/hip_flexion_r/value	/jointset/hip_r/hip_adduction_r/value	/jointset/hip_r/hip_rotation_r/value	/jointset/back/lumbar_extension/value	/jointset/patellofemoral_r/patellar_flexion_r/value	/jointset/knee_r/knee_flexion_r/value	/jointset/knee_r/knee_adduction_r/value	/jointset/knee_r/knee_rotation_r/value	/jointset/ankle_r/ankle_angle_r/value	/jointset/subtalar_r/subtalar_angle_r/value	/jointset/ground_pelvis/pelvis_tilt/speed	/jointset/ground_pelvis/pelvis_tx/speed	/jointset/ground_pelvis/pelvis_ty/speed	/jointset/hip_r/hip_flexion_r/speed	/jointset/hip_r/hip_adduction_r/speed	/jointset/hip_r/hip_rotation_r/speed	/jointset/back/lumbar_extension/speed	/jointset/patellofemoral_r/patellar_flexion_r/speed	/jointset/knee_r/knee_flexion_r/speed	/jointset/knee_r/knee_adduction_r/speed	/jointset/knee_r/knee_rotation_r/speed	/jointset/ankle_r/ankle_angle_r/speed	/jointset/subtalar_r/subtalar_angle_r/speed	/forceset/tau_hip_flexion_r	/forceset/tau_hip_adduction_r	/forceset/tau_hip_rotation_r	/forceset/tau_knee_flexion_r	/forceset/tau_ankle_angle_r	/forceset/tau_subtalar_angle_r	/forceset/tau_lumbar_extension	lambda_cid13_p0	lambda_cid14_p0	lambda_cid14_p1	lambda_cid14_p2	lambda_cid14_p3	lambda_cid14_p4	lambda_cid14_p5	/jointset/ground_pelvis/pelvis_tilt/accel	/jointset/ground_pelvis/pelvis_tx/accel	/jointset/ground_pelvis/pelvis_ty/accel	/jointset/hip_r/hip_flexion_r/accel	/jointset/hip_r/hip_adduction_r/accel	/jointset/hip_r/hip_rotation_r/accel	/jointset/back/lumbar_extension/accel	/jointset/patellofemoral_r/patellar_flexion_r/accel	/jointset/knee_r/knee_flexion_r/accel	/jointset/knee_r/knee_adduction_r/accel	/jointset/knee_r/knee_rotation_r/accel	/jointset/ankle_r/ankle_angle_r/accel	/jointset/subtalar_r/subtalar_angle_r/accel	gamma_cid13_p0	gamma_cid14_p0	gamma_cid14_p1	gamma_cid14_p2	gamma_cid14_p3	gamma_cid14_p4	gamma_cid14_p5
1.5	-0.1187087660104639	0.01870965833724344	0.7929835561359913	0.9194920997608049	-0.2216753774239934	-0.1258559716731307	-0.639440087878716	1.018853711999541	1.018853711999383	-0.07432879983420783	0.1744866795049811	0.3155665336839921	0.1492088436871581	0.5630373190978246	0.2377571827313673	0.6085117639788613	-2.304243226814599	0.04341371816873687	-0.2246874865724916	0.7955566690690977	-2.162642605215796	-2.162642605215225	0.4395431840086535	0.0009997548433020114	-0.5265687284678228	-0.1493075861645011	-0.181713552089629	0.002734397804302839	0.01851345055792106	-0.3147572773066221	0.02087804285035118	0.002927878670821278	0.2276928818238914	-5.561346339383895	-34.92850143605898	-4.669024962615788	0.966269011682771	-5.324766936911034	-627.7165971620025	65.42367235363042	0.2960090116775129	0.7133715160312151	-0.5710001561894219	-1.202818409643886	-0.2136343461679661	-0.3284596645410655	2.054866311495241	-1.525439725487204	-1.525439725487218	0.7509873321798644	-0.08353570325014273	-0.8350997014821072	-0.5397815378964947	9.672221931271489e-08	-1.412608032564894e-07	-2.723664705518105e-06	-6.487767694560512e-07	3.391064867337131e-07	2.568074370254099e-07	-1.92151959638212e-06
1.51	-0.1130638819228955	0.02112259483196468	0.7990388511291385	0.8963918016078735	-0.2212526884399471	-0.1281224424683961	-0.6313836879106292	0.9971534296817627	0.9971534296813102	-0.06989747735765332	0.1744953111054854	0.3102596983845254	0.1476881053160445	0.5658507119160976	0.2447946771557426	0.6024084731785408	-2.315490647726096	0.04112079878913175	-0.2286901031331652	0.8156000628384179	-2.177107478972606	-2.177107478972544	0.4465988010632273	0.0007429393399655951	-0.5347059500511032	-0.1547834804347468	-0.1735493227542892	0.001460487138563006	0.01820472075026255	-0.3096450942414258	0.02193841937347229	0.002561555584985808	0.2201527726259272	-6.501331945027147	-34.20302125664729	-4.532582038973262	0.7520357018655437	-5.231664548633622	-621.5401924272811	65.09121600542902	0.2606700351026615	0.6936808363143678	-0.6507475120729342	-1.03685591123004	-0.2378020192532314	-0.4484855970242979	1.960586652952905	-1.36107941295365	-1.361079413030047	0.6641172569790863	0.005572370256901465	-0.7890936922499546	-0.5434423840530384	1.157849200791485e-07	-1.015002316149387e-07	-2.644499628197143e-06	-3.962845098038373e-07	3.076482900395069e-07	2.861412492117579e-07	-1.812500208661995e-06
1.52	-0.1073935307835117	0.02360485475706381	0.8050289624202603	0.873188798849921	-0.2208530649067638	-0.1304314040183592	-0.6231305518561968	0.9753176849836952	0.9753176849835756	-0.06539934503758263	0.1745018399197651	0.3048742788081342	0.1461142181997345	0.5681307294624437	0.2516218688069466	0.5954750235737539	-2.32478414781066	0.03880062799373185	-0.2331856375016532	0.8349038863398799	-2.189735081216428	-2.189735081216874	0.4529051527131668	0.0005791976019064733	-0.5422855838543422	-0.1599373352035888	-0.165385093419193	0.0001865764725891759	0.0178959909457397	-0.304532911175892	0.02299879589653915	0.002195232498648164	0.2126126634277457	-7.516086822434345	-33.47110909602829	-4.386017710642257	0.5259156889636081	-5.164265844331128	-615.2808736176983	64.79651025379053	0.1893339572921578	0.6713109613972066	-0.7370319170826704	-0.8120342442570561	-0.2190846293270367	-0.4270432261035065	1.906952257923757	-1.157985422889572	-1.15798542288957	0.6011342512529452	-0.06492095019555291	-0.7235821454735251	-0.4753736376152166	1.524138094121858e-07	-1.262486331254646e-08	-2.325463867473114e-06	2.720432009150639e-07	2.281756459333836e-07	3.377204067049399e-07	-1.559908092033255e-06
1.53	-0.1017030224462556	0.02615432446390962	0.8109457137528268	0.8499024027361808	-0.2204773089348827	-0.1327847489995319	-0.6146882673703001	0.953365175662492	0.9533651756629046	-0.0608383795731918	0.1745063083311716	0.2994158138436611	0.1444894937039858	0.5698761041146809	0.258235089143326	0.5877473966066319	-2.33217436415785	0.03633883393012471	-0.2375529491895822	0.8534177752010361	-2.200456141207126	-2.200456141207457	0.4591958278443442	0.0003402547819421253	-0.5493048648209794	-0.1649619523339818	-0.1570796013880226	-0.0009877138273842005	0.0176875137200788	-0.3002699321930033	0.02490543068687923	0.001354999386334477	0.2050179274386197	-8.604080897352441	-32.54001719537436	-4.459288302289792	0.3906876890472595	-5.245478819851271	-609.528962784392	64.21122995233974	0.1529335761665301	0.6507856240997818	-0.8097143958898335	-0.654381890756793	-0.2613033423891277	-0.4516242096382265	1.803321854269563	-0.982617482978817	-0.9826174829616244	0.6290187017711932	0.0008318913977769966	-0.6756573912871781	-0.509157271139882	2.077067740972395e-07	1.284349764419894e-07	-1.75156550563333e-06	1.382196078392316e-06	9.768765145209902e-08	4.129352435866328e-07	-1.154769950939113e-06
1.54	-0.0959979014911152	0.02876881798498602	0.8167813715538506	0.8265517311467526	-0.2201264862132466	-0.1351837769112409	-0.6060649010649924	0.9313147655026252	0.9313147655026053	-0.05621731044595418	0.1745092298823966	0.2938902448056902	0.1428158927328554	0.5710532530459476	0.2646266316530631	0.5792563172652239	-2.337639242937383	0.03381397796577428	-0.2423222236574064	0.8711202502245525	-2.209315249030581	-2.209315249030797	0.4649258852842161	0.0002698255338252584	-0.5557063985487426	-0.169712630279889	-0.1487741093570007	-0.002162004126453994	0.01747903648784894	-0.2960069532109173	0.02681206547749873	0.0005147662757644077	0.1974231914492875	-9.755516216659483	-31.60156934460652	-4.521795245489594	0.2429198536204684	-5.356517671609889	-603.6828823752365	63.70843159099072	0.07568881309813459	0.6269753960691057	-0.8897223919397851	-0.4269667307254338	-0.231697009474755	-0.5074357820819859	1.744669490395798	-0.7855949894411107	-0.7855949894410851	0.4890107129919112	-0.03121823582667942	-0.6000326976983172	-0.4205858007176634	2.253559613180097e-07	1.964398672141761e-07	-1.361743807530027e-06	1.89683741452828e-06	2.345487702162916e-08	4.431755280946451e-07	-8.995829199619999e-07
1.55	-0.09028397962653455	0.03144595676052378	0.8225283422426924	0.8031564036299321	-0.2198009897410711	-0.1376318442426764	-0.5972686273428177	0.909185316661278	0.9091853166612294	-0.0515416420711975	0.1745115371802415	0.2883037683211009	0.1410965112963026	0.5716375397689922	0.2707475362424472	0.5700177993714568	-2.341088218488965	0.03126965218633963	-0.2472917580990967	0.8879726219222506	-2.216242125003989	-2.216242125004118	0.4701772308900811	0.0001925474127075979	-0.5614924347034087	-0.1741312575308374	-0.1406857957301347	-0.003448461362298273	0.01728462197885772	-0.2915635204172509	0.02796134396762211	-0.000326921340738584	0.1899301470160308	-10.91710162621485	-30.93730926939916	-4.618209149030457	0.0837296000850634	-5.139204295720288	-598.1924285722253	63.19532805476716	0.03577718143303451	0.5966116707995096	-0.9588377357808436	-0.2531342392550435	-0.2679959210647813	-0.4914789095954745	1.631240166033705	-0.5964118346057071	-0.596411834592622	0.5384718401927335	0.004444204684494748	-0.553373501434302	-0.4476191085966627	1.996329701560209e-07	1.802727515501825e-07	-1.184010439383962e-06	1.725345887814539e-06	1.403789960622487e-08	4.215973066068979e-07	-8.171656462936268e-07
1.56	-0.08456701917882996	0.03418269731803959	0.8281793435030611	0.7797367321031743	-0.2195013756384822	-0.1401295602453534	-0.5883086860723625	0.886996563473492	0.8869965634734711	-0.04681440516926515	0.1745131570579505	0.2826623345895426	0.1393339200029779	0.571660969673063	0.2765469880486721	0.5600624315705137	-2.342508044915783	0.02863750405131966	-0.2522519579160995	0.9038537598830656	-2.221176118309988	-2.221176118310029	0.4752395907282688	0.0001323414891664816	-0.5666978479414121	-0.1783546016343179	-0.1325974821035319	-0.004734918597874583	0.01709020746968944	-0.2871200876236757	0.0291106224578247	-0.00116860895681621	0.1824371025825071	-12.07578173052086	-30.27106261788986	-4.711084359207792	-0.07967031527746274	-4.936962798002568	-592.6743647020899	62.74882199764235	-0.03648255069657548	0.5626848394375945	-1.033092373374956	-0.0211369057726143	-0.2492614805915227	-0.5055688571440033	1.550422743019279	-0.3870184559595424	-0.3870184559595269	0.4512135594564056	-0.02780379631209642	-0.4839081143654145	-0.3815291712236429	1.867463084140865e-07	1.594815777423835e-07	-1.209821984658093e-06	1.534385415312943e-06	2.735268458273333e-08	4.090626486488677e-07	-8.512633419280254e-07
1.57	-0.07885272506478222	0.03697579402984642	0.8337273183069813	0.7563130644662599	-0.2192283927661169	-0.1426777206913201	-0.579194859122568	0.8647683989335326	0.8647683989335058	-0.04203833239993127	0.1745146726630098	0.2769718848320659	0.1375303370672074	0.571095894876652	0.282015095559236	0.5494238924564596	-2.34187867721019	0.02595292914861121	-0.257383448794034	0.9187398605106137	-2.224115076266738	-2.224115076266739	0.4799264395399209	0.0001683706381794681	-0.5712824547848709	-0.1823129192059606	-0.1244159074263613	-0.006137828352874091	0.01696831465083122	-0.2834002319706909	0.03095922381400456	-0.002263343598568508	0.1749433447342245	-13.22742613279361	-29.43410011062062	-4.913293741794194	-0.1921402875252257	-4.872288630116219	-587.679982141969	62.22613980534079	-0.0818053931900415	0.5303035164768402	-1.095448768965179	0.1570081497957383	-0.2789286368721885	-0.5171410330786306	1.431938287618333	-0.1961157987281472	-0.1961157987222389	0.4699237829117816	0.01913893888585816	-0.4292282673508926	-0.395741388778882	1.899050584472198e-07	1.329103312548279e-07	-1.490064671707467e-06	1.319088760576528e-06	6.908217254913244e-08	4.078324451029836e-07	-1.031004749190887e-06
1.58	-0.07314713878852518	0.03982185777867996	0.8391656649020532	0.7329060974145664	-0.218982430271142	-0.1452772364120242	-0.5699373242535112	0.8425210885473666	0.8425210885473238	-0.03721689049427353	0.1745165150931988	0.2712388907465476	0.1356886192879923	0.5699194021171826	0.2871403954540172	0.5381367898008169	-2.339167927861804	0.02323342857535551	-0.2625230128703862	0.9325953437380332	-2.225005287551297	-2.225005287551258	0.4843134179872318	0.0001977065223480682	-0.5752067135489159	-0.1859815703233835	-0.1162343327494943	-0.007540738107688389	0.0168464218314062	-0.2796803763178221	0.03280782517025188	-0.00335807824000318	0.1674495868856449	-14.36639944496385	-28.59611497965877	-5.112272959807879	-0.3086108590364012	-4.814963485232327	-582.672943902108	61.76561506537697	-0.1587661433082478	0.49412331628138	-1.16280508169265	0.3951394227859343	-0.25624661470064	-0.5071834968270046	1.344299262993633	0.02273087847826694	0.02273087847826592	0.3912394865880948	-0.02914244928180552	-0.3518384984822836	-0.323595880379198	1.902833618498954e-07	1.081562485304578e-07	-1.723670978873038e-06	1.096304544787961e-06	1.047879456985741e-07	4.043224159402046e-07	-1.166487252649832e-06
1.59	-0.06745636414435754	0.0427173594355723	0.844488010702668	0.7095367298732301	-0.2187636580452205	-0.1479287431236316	-0.5605465342462345	0.8202751586564245	0.8202751586563113	-0.03235376217475831	0.1745188180515752	0.2654700150231734	0.1338119492874718	0.5681363314684	0.2918922787459184	0.5262350654691795	-2.334348016964691	0.02051900743100695	-0.2677637338599422	0.9453731491493053	-2.223820972698332	-2.223820972698355	0.4882662430058253	0.0002545700251828489	-0.578453776153406	-0.1892996320376762	-0.1082518951685101	-0.009034791799549377	0.01671403347367956	-0.2760608625500802	0.03438949805407075	-0.004503904113753694	0.1601320429456765	-15.48848785521972	-27.88438634244013	-5.353175324154452	-0.4211070849354151	-4.624324385090781	-578.1827999829829	61.30706163318649	-0.2029546719632009	0.4556020049627942	-1.21837308015375	0.579057886126373	-0.2793950208912898	-0.5300708559201543	1.216094894753857	0.2202025069763109	0.220202506966859	0.3901308139034406	0.02195369149576646	-0.2938708538772312	-0.3282199392083951	1.868882019683785e-07	8.586831662755369e-08	-1.893985056196308e-06	8.633586390000461e-07	1.323186773107168e-07	3.977183377259254e-07	-1.241904100946321e-06
